<?xml version="1.0" encoding="UTF-8"?>
<svg xmlns="http://www.w3.org/2000/svg" width="1200" height="1200" viewBox="0 0 1200 1200">
  <defs>
    <linearGradient id="soft" x1="0" y1="0" x2="1" y2="1"><stop stop-color="#FFFFFF"/><stop offset="1" stop-color="#F0EEFF"/></linearGradient>
    <linearGradient id="deep" x1="0" y1="0" x2="1" y2="1"><stop stop-color="#3D2EB2"/><stop offset=".55" stop-color="#6559E8"/><stop offset="1" stop-color="#877EFF"/></linearGradient>
    <filter id="shadow" x="-20%" y="-20%" width="140%" height="160%"><feDropShadow dx="0" dy="18" stdDeviation="22" flood-color="#2F255C" flood-opacity=".14"/></filter>
    <style>
      text{font-family:Inter,-apple-system,BlinkMacSystemFont,'Segoe UI',Arial,sans-serif}
      .eyebrow{font-size:23px;font-weight:700;letter-spacing:2px}
      .title{font-size:70px;font-weight:800;letter-spacing:-3px;fill:#FFFFFF}
      .subtitle{font-size:31px;font-weight:450;fill:#E8E5FF}
      .label{font-size:25px;font-weight:700;fill:#20202B}
      .small{font-size:20px;fill:#707080}
    </style>
  </defs>
  
    <rect width="1200" height="1200" fill="url(#deep)"/>
    <circle cx="600" cy="600" r="430" fill="none" stroke="#FFFFFF" stroke-opacity=".08" stroke-width="2"/>
    <circle cx="600" cy="600" r="320" fill="none" stroke="#FFFFFF" stroke-opacity=".1" stroke-width="2"/>
    <circle cx="600" cy="600" r="220" fill="none" stroke="#FFFFFF" stroke-opacity=".12" stroke-width="2"/>
    
  <g transform="translate(552 138)">
    <rect width="96" height="96" rx="26.880000000000003" fill="#FFFFFF"/>
    <path d="M48 17.28c2 12 8 18 20 20-12 2-18 8-20 20-2-12-8-18-20-20 12-2 18-8 20-20Z" fill="#6559E8"/>
    <circle cx="24" cy="24" r="3.3600000000000003" fill="#6559E8"/>
    <circle cx="72.96000000000001" cy="64.32000000000001" r="2.688" fill="#6559E8"/>
  </g>
    <text x="600" y="350" text-anchor="middle" class="eyebrow" fill="#DCD8FF">COMECE EM MINUTOS</text>
    <text x="600" y="468" text-anchor="middle" class="title">Seu próximo projeto</text>
    <text x="600" y="550" text-anchor="middle" class="title">começa com mais</text>
    <text x="600" y="632" text-anchor="middle" class="title">clareza.</text>
    <rect x="382" y="728" width="436" height="92" rx="24" fill="#FFF" filter="url(#shadow)"/>
    <text x="600" y="786" text-anchor="middle" font-size="29" font-weight="800" fill="#6559E8">Experimente o Orbitask  →</text>
    <text x="600" y="918" text-anchor="middle" font-size="24" fill="#E7E4FF">Web e Desktop • Projetos • Tarefas • Equipes</text>
    <text x="600" y="1070" text-anchor="middle" font-size="25" font-weight="750" fill="#FFF">✦ orbitask</text>
</svg>